<?xml version="1.0" encoding="UTF-8"?> <svg xmlns="http://www.w3.org/2000/svg" width="64" height="64" viewBox="0 0 64 64" fill="none"><path opacity="0.2" d="M32.0001 59.38C47.1217 59.38 59.3801 47.1216 59.3801 32C59.3801 16.8784 47.1217 4.62 32.0001 4.62C16.8786 4.62 4.62012 16.8784 4.62012 32C4.62012 47.1216 16.8786 59.38 32.0001 59.38Z" fill="#CCC6E3"></path><path d="M50.0098 55.53C50.6598 56.17 50.2198 57.27 49.2998 57.27H35.3998C29.4998 57.27 24.3698 53.93 21.8198 49.03C20.7098 46.91 20.0798 44.5 20.0798 41.95C20.0798 33.71 26.5798 27 34.7198 26.66C34.9398 26.65 35.1698 26.64 35.3998 26.64C43.8598 26.64 50.7198 33.49 50.7198 41.96C50.7198 45.95 49.1998 49.58 46.6998 52.31L50.0098 55.54V55.53Z" fill="#CCC6E3"></path><path d="M34.3099 32.49C34.3099 40.95 27.4499 47.81 18.9899 47.81H5.08992C4.17992 47.81 3.72992 46.71 4.37992 46.07L7.68992 42.84C5.18992 40.11 3.66992 36.49 3.66992 32.49C3.66992 24.03 10.5299 17.17 18.9899 17.17C27.4499 17.17 34.3099 24.02 34.3099 32.49Z" fill="#5642A3"></path><path d="M14.82 30.32C15.47 32.23 16.47 33.8 17.88 35C19.27 33.81 20.28 32.27 20.9 30.22L22.16 30.58C22.12 30.68 22 30.74 21.83 30.72C21.12 32.79 20.08 34.39 18.68 35.62C20.2 36.66 22.11 37.38 24.43 37.75C24.23 37.97 23.95 38.4 23.82 38.68C21.38 38.25 19.41 37.45 17.85 36.28C16.24 37.42 14.25 38.19 11.81 38.72C11.71 38.49 11.46 38.07 11.29 37.84C13.62 37.36 15.54 36.67 17.07 35.63C15.65 34.33 14.63 32.65 13.9 30.57L14.81 30.32H14.82ZM14.76 29.77V28.18H11.48V27.24H14.76V25.29L16.02 25.36C16.01 25.46 15.92 25.53 15.73 25.56V27.24H19.92V25.29L21.16 25.36C21.15 25.48 21.07 25.53 20.89 25.56V27.24H24.23V28.18H20.89V29.77H19.92V28.18H15.73V29.77H14.76Z" fill="white"></path><path d="M35.0598 36.79H36.2598V47.81H35.0598V36.79Z" fill="white"></path><path d="M58.88 19.15H55.82V26.25C55.82 26.74 55.43 27.13 54.94 27.13H51.33C50.84 27.13 50.45 26.74 50.45 26.25V19.15H47.38C46.35 19.15 45.71 18.03 46.26 17.14L52.02 7.77999C52.52 6.93999 53.74 6.93999 54.26 7.77999L60 17.14C60.55 18.03 59.91 19.15 58.88 19.15Z" fill="#5642A3"></path><path d="M54.9699 28.13H51.2899C50.8039 28.13 50.4099 28.524 50.4099 29.01V29.05C50.4099 29.536 50.8039 29.93 51.2899 29.93H54.9699C55.4559 29.93 55.8499 29.536 55.8499 29.05V29.01C55.8499 28.524 55.4559 28.13 54.9699 28.13Z" fill="#5642A3"></path><path d="M54.9699 30.92H51.2899C50.8039 30.92 50.4099 31.314 50.4099 31.8V31.84C50.4099 32.326 50.8039 32.72 51.2899 32.72H54.9699C55.4559 32.72 55.8499 32.326 55.8499 31.84V31.8C55.8499 31.314 55.4559 30.92 54.9699 30.92Z" fill="#5642A3"></path></svg> 