<?xml version="1.0" encoding="UTF-8"?> <svg xmlns="http://www.w3.org/2000/svg" width="64" height="64" viewBox="0 0 64 64" fill="none"><path opacity="0.2" d="M32.0001 59.38C47.1217 59.38 59.3801 47.1216 59.3801 32C59.3801 16.8784 47.1217 4.62 32.0001 4.62C16.8786 4.62 4.62012 16.8784 4.62012 32C4.62012 47.1216 16.8786 59.38 32.0001 59.38Z" fill="#CCC6E3"></path><path d="M14.17 19.57H16.09C19.61 19.57 22.47 22.43 22.47 25.95V32.14C22.47 32.96 21.81 33.62 20.99 33.62H9.27004C8.45004 33.62 7.79004 32.96 7.79004 32.14V25.95C7.79004 22.43 10.65 19.57 14.17 19.57Z" fill="#5642A3"></path><path d="M15.1299 18.59C17.8693 18.59 20.0899 16.3693 20.0899 13.63C20.0899 10.8907 17.8693 8.67001 15.1299 8.67001C12.3906 8.67001 10.1699 10.8907 10.1699 13.63C10.1699 16.3693 12.3906 18.59 15.1299 18.59Z" fill="#CCC6E3"></path><path d="M30.9801 19.57H32.9001C36.4201 19.57 39.2801 22.43 39.2801 25.95V32.14C39.2801 32.96 38.6201 33.62 37.8001 33.62H26.0801C25.2601 33.62 24.6001 32.96 24.6001 32.14V25.95C24.6001 22.43 27.4601 19.57 30.9801 19.57Z" fill="#5642A3"></path><path d="M31.94 18.59C34.6793 18.59 36.9 16.3693 36.9 13.63C36.9 10.8907 34.6793 8.67001 31.94 8.67001C29.2006 8.67001 26.98 10.8907 26.98 13.63C26.98 16.3693 29.2006 18.59 31.94 18.59Z" fill="#CCC6E3"></path><path d="M47.91 19.57H49.83C53.35 19.57 56.21 22.43 56.21 25.95V32.14C56.21 32.96 55.55 33.62 54.73 33.62H43.01C42.19 33.62 41.53 32.96 41.53 32.14V25.95C41.53 22.43 44.39 19.57 47.91 19.57Z" fill="#5642A3"></path><path d="M48.8699 18.59C51.6092 18.59 53.8299 16.3693 53.8299 13.63C53.8299 10.8907 51.6092 8.67001 48.8699 8.67001C46.1306 8.67001 43.9099 10.8907 43.9099 13.63C43.9099 16.3693 46.1306 18.59 48.8699 18.59Z" fill="#CCC6E3"></path><path d="M45.81 38.33H18.08C16.7876 38.33 15.74 39.3777 15.74 40.67V57.65C15.74 58.9424 16.7876 59.99 18.08 59.99H45.81C47.1023 59.99 48.15 58.9424 48.15 57.65V40.67C48.15 39.3777 47.1023 38.33 45.81 38.33Z" fill="#CCC6E3"></path><path d="M30.4599 58.56C28.5399 57.41 24.6699 55.56 20.5899 56.32C19.0599 56.6 17.6799 55.36 17.6799 53.81V38.05C17.6799 36.78 18.6199 35.7 19.8799 35.53C22.0999 35.23 25.8699 35.32 30.6499 37.73C31.3299 38.07 32.1399 38.07 32.8299 37.73C34.9999 36.69 39.9999 34.68 44.3899 35.79C45.5199 36.07 46.3199 37.1 46.3199 38.26V53.89C46.3199 55.48 44.8899 56.65 43.3299 56.39C40.8999 55.98 37.2099 56.05 33.0699 58.52C32.2799 58.99 31.2799 59.03 30.4899 58.55L30.4599 58.56Z" fill="#5642A3"></path><path d="M32.01 40.02V58.12" stroke="#CCC6E3" stroke-width="2" stroke-linecap="round" stroke-linejoin="round"></path><path d="M34.95 41.43C37.4 40.18 40.3299 39.89 43.0299 40.65L44.56 41.08" stroke="white" stroke-width="1.5" stroke-linecap="round" stroke-linejoin="round"></path><path d="M34.95 46.39C37.4 45.14 40.3299 44.85 43.0299 45.61L44.56 46.04" stroke="white" stroke-width="1.5" stroke-linecap="round" stroke-linejoin="round"></path><path d="M34.95 51.84C37.4 50.59 40.3299 50.3 43.0299 51.06L44.56 51.49" stroke="white" stroke-width="1.5" stroke-linecap="round" stroke-linejoin="round"></path><path d="M28.83 41.22C26.38 39.97 23.45 39.68 20.75 40.44L19.22 40.87" stroke="white" stroke-width="1.5" stroke-linecap="round" stroke-linejoin="round"></path><path d="M28.83 46.18C26.38 44.93 23.45 44.64 20.75 45.4L19.22 45.83" stroke="white" stroke-width="1.5" stroke-linecap="round" stroke-linejoin="round"></path><path d="M28.83 51.63C26.38 50.38 23.45 50.09 20.75 50.85L19.22 51.28" stroke="white" stroke-width="1.5" stroke-linecap="round" stroke-linejoin="round"></path></svg> 