<?xml version="1.0" encoding="UTF-8"?> <svg xmlns="http://www.w3.org/2000/svg" width="64" height="64" viewBox="0 0 64 64" fill="none"><path opacity="0.2" d="M32.0001 59.38C47.1217 59.38 59.3801 47.1216 59.3801 32C59.3801 16.8784 47.1217 4.62 32.0001 4.62C16.8786 4.62 4.62012 16.8784 4.62012 32C4.62012 47.1216 16.8786 59.38 32.0001 59.38Z" fill="#CCC6E3"></path><path d="M40.9001 30.71C42.3501 30.37 43.2501 28.91 42.9001 27.46C42.5501 26.01 41.1001 25.11 39.6501 25.46C39.6501 25.46 34.4201 26.66 30.9201 27.49C29.9001 27.73 29.0501 26.69 29.5001 25.74C30.8601 22.85 31.8001 18.56 29.2801 17.13C28.0701 16.44 26.5801 16.71 25.7301 18.39C24.0701 21.68 22.3201 23.66 21.0601 24.79C19.8301 25.89 18.9001 27.29 18.4101 28.87L16.6101 34.59L20.7801 52.15L44.6401 46.49C46.0901 46.15 46.9901 44.69 46.6401 43.24C46.3001 41.79 44.8401 40.89 43.3901 41.24C44.8401 40.9 45.7401 39.44 45.3901 37.99C45.0501 36.54 43.5901 35.64 42.1401 35.99C43.5901 35.65 44.4901 34.19 44.1401 32.74C43.8001 31.29 42.3401 30.39 40.8901 30.74L40.9001 30.71Z" fill="#CCC6E3"></path><path d="M14.3999 58.57L19.5799 57.34C21.5799 56.87 22.8099 54.86 22.3399 52.87L17.3999 32.08L8.66988 34.15C6.62988 34.63 5.36988 36.68 5.85988 38.71L9.91988 55.82C10.3899 57.82 12.3999 59.05 14.3899 58.58L14.3999 58.57Z" fill="#5642A3"></path><path d="M18.25 52.32C18.25 53.75 17.09 54.92 15.65 54.92C14.21 54.92 13.05 53.76 13.05 52.32C13.05 50.88 14.21 49.72 15.65 49.72C17.09 49.72 18.25 50.88 18.25 52.32Z" fill="white"></path><path d="M45.4001 6.32999L45.8401 9.50999L48.7101 10.95C49.8401 11.52 49.8301 13.13 48.6901 13.68L45.8001 15.08L45.3201 18.26C45.1301 19.51 43.5901 20 42.7101 19.09L40.4801 16.77L37.3101 17.29C36.0601 17.49 35.1201 16.18 35.7201 15.07L37.2401 12.24L35.7601 9.37999C35.1801 8.25999 36.1401 6.95999 37.3801 7.17999L40.5401 7.74999L42.8001 5.45999C43.6901 4.55999 45.2201 5.06999 45.3901 6.31999L45.4001 6.32999Z" fill="#5642A3"></path><path d="M55.4599 21.57L55.8999 24.75L58.7699 26.19C59.8999 26.76 59.8899 28.37 58.7499 28.92L55.8599 30.32L55.3799 33.5C55.1899 34.75 53.6499 35.24 52.7699 34.33L50.5399 32.01L47.3699 32.53C46.1199 32.73 45.1799 31.42 45.7799 30.31L47.2999 27.48L45.8199 24.62C45.2399 23.5 46.1999 22.2 47.4399 22.42L50.5999 22.99L52.8599 20.7C53.7499 19.8 55.2799 20.31 55.4499 21.56L55.4599 21.57Z" fill="#5642A3"></path><path d="M57.18 10.44L57.44 12.31L59.12 13.16C59.78 13.49 59.77 14.44 59.11 14.76L57.41 15.58L57.13 17.44C57.02 18.17 56.12 18.46 55.6 17.92L54.3 16.56L52.44 16.87C51.71 16.99 51.16 16.22 51.51 15.57L52.4 13.91L51.54 12.24C51.2 11.58 51.76 10.82 52.49 10.95L54.34 11.28L55.66 9.93999C56.18 9.40999 57.08 9.70999 57.18 10.45V10.44Z" fill="#5642A3"></path><path d="M6.47996 21.96C6.30996 22.28 5.97996 22.47 5.62996 22.47C4.41996 22.45 3.30996 23.27 2.99996 24.5C2.42996 26.75 4.00996 28.85 9.23996 29.06C9.78996 29.08 10.31 28.77 10.55 28.28C12.86 23.57 11.76 21.19 9.50996 20.62C8.27996 20.31 7.03996 20.9 6.47996 21.97V21.96Z" fill="#CCC6E3"></path><path d="M13.6801 17.88L7.36011 12.84" stroke="#5642A3" stroke-width="2" stroke-linecap="round" stroke-linejoin="round"></path><path d="M21.3201 13.93L20.6201 5.88" stroke="#5642A3" stroke-width="2" stroke-linecap="round" stroke-linejoin="round"></path></svg> 