<?xml version="1.0" encoding="UTF-8"?> <svg xmlns="http://www.w3.org/2000/svg" width="64" height="64" viewBox="0 0 64 64" fill="none"><g clip-path="url(#clip0_100_376)"><path d="M15.482 8.95464H13.2075C13.5496 6.42176 14.9501 6.29451 15.5946 6.23589C16.2385 6.17726 16.7314 5.63751 16.7314 4.99101V1.25039C16.7314 0.906763 16.5899 0.578138 16.3401 0.342013C16.0904 0.105888 15.7541 -0.0164868 15.4113 0.00238824C11.46 0.224638 6.75 2.21964 6.75 10.4619V16.9669C6.75 18.0528 7.63337 18.9361 8.71925 18.9361H15.4821C16.568 18.9361 17.4514 18.0526 17.4513 16.9668V10.9239C17.4513 9.83801 16.5679 8.95464 15.482 8.95464ZM14.9514 16.436H9.25V10.4619C9.25 4.71064 11.8076 3.10439 14.2314 2.65101V3.96526C12.5575 4.47476 10.631 5.97951 10.631 10.2046C10.631 10.895 11.1906 11.4546 11.881 11.4546H14.9514V16.436Z" fill="white"></path><path d="M28.2614 8.95464H25.9868C26.3289 6.42176 27.7294 6.29451 28.3739 6.23589C29.0178 6.17726 29.5106 5.63751 29.5106 4.99101V1.25039C29.5106 0.906763 29.3691 0.578138 29.1194 0.342013C28.8696 0.105888 28.5331 -0.0164868 28.1905 0.00238824C24.2393 0.224638 19.5293 2.21964 19.5293 10.4619V16.9669C19.5293 18.0528 20.4126 18.9361 21.4985 18.9361H28.2614C29.3473 18.9361 30.2308 18.0526 30.2306 16.9666V10.9239C30.2306 9.83801 29.3473 8.95464 28.2614 8.95464ZM27.7306 16.4361H22.0293V10.4619C22.0293 4.71064 24.5869 3.10439 27.0106 2.65101V3.96526C25.3368 4.47476 23.4103 5.97951 23.4103 10.2046C23.4103 10.895 23.9699 11.4546 24.6603 11.4546H27.7306V16.4361Z" fill="white"></path><path d="M35.6338 10.0987C35.4013 9.86617 35.0788 9.73242 34.75 9.73242C34.4212 9.73242 34.0987 9.86617 33.8662 10.0987C33.6337 10.3312 33.5 10.6537 33.5 10.9824C33.5 11.3112 33.6337 11.6337 33.8662 11.8662C34.0987 12.0987 34.4212 12.2324 34.75 12.2324C35.0788 12.2324 35.4013 12.0987 35.6338 11.8662C35.8663 11.6337 36 11.3112 36 10.9824C36 10.6537 35.8663 10.3312 35.6338 10.0987Z" fill="white"></path><path d="M41.7834 9.73291H40.2082C39.5179 9.73291 38.9582 10.2925 38.9582 10.9829C38.9582 11.6733 39.5179 12.2329 40.2082 12.2329H41.7834C52.6551 12.2329 61.5 21.0778 61.5 31.9495C61.5 41.2285 54.919 49.3435 45.8516 51.2452C45.2727 51.3667 44.8582 51.8772 44.8582 52.4685V59.7315L37.159 52.0323C36.9246 51.7979 36.6066 51.6662 36.2751 51.6662H22.2166C11.3449 51.6662 2.5 42.8213 2.5 31.9495C2.5 28.5989 3.35538 25.2903 4.97375 22.381C5.3095 21.7778 5.09237 21.0167 4.48912 20.681C3.88575 20.3453 3.12462 20.5624 2.78912 21.1657C0.964375 24.4455 0 28.1745 0 31.9495C0 44.1999 9.96625 54.1662 22.2166 54.1662H35.7574L45.2244 63.6332C45.4635 63.8723 45.7831 63.9993 46.1085 63.9993C46.2695 63.9993 46.432 63.9682 46.5866 63.904C47.0536 63.7107 47.3582 63.2549 47.3582 62.7493V53.4592C51.8811 52.2872 55.9707 49.6793 58.9591 46.0413C62.2098 42.0842 64 37.0797 64 31.9495C64 19.6993 54.0337 9.73304 41.7834 9.73291Z" fill="white"></path><path d="M47.383 22.1865H16.6171C15.9268 22.1865 15.3671 22.7461 15.3671 23.4365C15.3671 24.1269 15.9268 24.6865 16.6171 24.6865H47.3829C48.0732 24.6865 48.633 24.1269 48.633 23.4365C48.633 22.7461 48.0734 22.1865 47.383 22.1865Z" fill="white"></path><path d="M47.383 28.853H16.6171C15.9268 28.853 15.3671 29.4127 15.3671 30.103C15.3671 30.7934 15.9268 31.353 16.6171 31.353H47.3829C48.0732 31.353 48.633 30.7934 48.633 30.103C48.633 29.4127 48.0734 28.853 47.383 28.853Z" fill="white"></path><path d="M47.383 35.5195H16.6171C15.9268 35.5195 15.3671 36.0793 15.3671 36.7695C15.3671 37.4598 15.9268 38.0195 16.6171 38.0195H47.3829C48.0732 38.0195 48.633 37.4598 48.633 36.7695C48.633 36.0793 48.0734 35.5195 47.383 35.5195Z" fill="white"></path><path d="M47.3829 42.1865H30.9839C30.2935 42.1865 29.7339 42.7463 29.7339 43.4365C29.7339 44.1268 30.2935 44.6865 30.9839 44.6865H47.3829C48.0732 44.6865 48.6329 44.1268 48.6329 43.4365C48.6329 42.7463 48.0732 42.1865 47.3829 42.1865Z" fill="white"></path><path d="M23.9509 42.1865H23.9308C23.2404 42.1865 22.6808 42.7463 22.6808 43.4365C22.6808 44.1268 23.2404 44.6865 23.9308 44.6865H23.9509C24.6413 44.6865 25.2009 44.1268 25.2009 43.4365C25.2009 42.7463 24.6413 42.1865 23.9509 42.1865Z" fill="white"></path></g><defs><clipPath id="clip0_100_376"><rect width="64" height="64" fill="white"></rect></clipPath></defs></svg> 